<svg xmlns="http://www.w3.org/2000/svg" viewBox="0 0 64 64" width="32" height="32">
  <path d="M18.5,47c0-5.4,1.6-9.8,4.7-13.1c3.1-3.3,7.3-4.9,12.3-4.9c2.2,0,4.1,0.4,5.7,1.2c1.6,0.8,2.8,1.9,3.6,3.3
    c0.8,1.4,1.2,2.9,1.2,4.6c0,1.6-0.3,3-0.8,4.3c-0.5,1.3-1.3,2.4-2.3,3.3c-1,0.9-2.2,1.6-3.5,2c-1.4,0.5-2.9,0.7-4.5,0.7
    c-1.6,0-3.1-0.2-4.5-0.6c-1.4-0.4-2.5-1-3.5-1.7c-1-0.7-1.7-1.5-2.2-2.4c-0.5-0.9-0.8-1.8-0.8-2.8c0-0.3,0-0.5,0.1-0.8h0.1
    c0.3,1.3,1,2.3,2,3.1c1,0.8,2.3,1.2,3.9,1.2c1.7,0,3-0.4,3.9-1.3c0.9-0.9,1.4-2.1,1.4-3.7c0-1.7-0.5-3-1.6-4
    c-1-1-2.5-1.6-4.4-1.6c-2.7,0-4.9,1-6.5,2.9C20,40.5,19.2,43.4,19,47H18.5z M42.5,20.5c0-1.1,0.3-2,0.9-2.7c0.6-0.7,1.4-1.1,2.5-1.1
    c1.1,0,1.9,0.3,2.5,1c0.6,0.7,0.9,1.6,0.9,2.7c0,1.1-0.3,2-0.9,2.7c-0.6,0.7-1.4,1-2.5,1c-1.1,0-1.9-0.3-2.5-1
    C42.8,22.5,42.5,21.6,42.5,20.5z"
    fill="yellow"/>
</svg>
